<svg width="391" height="202" viewBox="0 0 391 202" fill="none" xmlns="http://www.w3.org/2000/svg">
<g clip-path="url(#clip0_10_127)">
<rect width="391" height="202"/>
<path d="M211.651 127.434C211.883 128.014 212.463 128.362 212.985 128.362C213.159 128.362 213.275 128.304 213.507 128.304C214.203 128.014 214.551 127.144 214.261 126.448L200.167 88.806C199.993 88.284 199.413 87.936 198.775 87.936C198.195 87.936 197.615 88.284 197.383 88.806L183.289 126.448C182.999 127.144 183.405 128.014 184.101 128.304C184.275 128.304 184.507 128.362 184.623 128.362C185.203 128.362 185.725 128.014 185.957 127.434L189.553 117.864H208.055L211.651 127.434ZM198.833 93.214L207.011 115.022H190.597L198.833 93.214ZM245.609 128.362C246.421 128.362 247.059 127.724 247.059 126.97C247.059 126.158 246.421 125.52 245.609 125.52H226.179V89.154C226.179 88.4 225.541 87.762 224.729 87.762C223.975 87.762 223.337 88.4 223.337 89.154V126.97C223.337 127.724 223.975 128.362 224.729 128.362H224.845H245.609ZM251.899 107.772C251.957 119.14 260.541 128.362 271.503 128.362C282.349 128.362 290.875 119.14 290.933 107.772C290.875 96.404 282.349 87.182 271.503 87.182C260.541 87.182 251.957 96.404 251.899 107.772ZM254.741 107.772C254.741 97.738 262.281 90.082 271.503 90.082C280.435 90.082 287.975 97.738 288.033 107.772C287.975 117.69 280.435 125.52 271.503 125.52C262.281 125.52 254.741 117.69 254.741 107.772Z" fill="#5C9D3D"/>
<path d="M313.878 128.942C311.017 128.942 308.503 128.517 306.338 127.666C304.173 126.815 302.085 125.462 300.074 123.606C299.803 123.335 299.571 123.045 299.378 122.736C299.223 122.388 299.146 122.021 299.146 121.634C299.146 121.015 299.359 120.474 299.784 120.01C300.248 119.507 300.809 119.256 301.466 119.256C302.007 119.256 302.491 119.469 302.916 119.894C304.424 121.363 306.048 122.485 307.788 123.258C309.567 124.031 311.558 124.418 313.762 124.418C315.463 124.418 316.991 124.147 318.344 123.606C319.736 123.065 320.838 122.311 321.65 121.344C322.462 120.377 322.868 119.256 322.868 117.98C322.829 116.433 322.365 115.157 321.476 114.152C320.625 113.147 319.427 112.315 317.88 111.658C316.372 110.962 314.613 110.382 312.602 109.918C310.823 109.493 309.18 108.971 307.672 108.352C306.203 107.733 304.927 106.979 303.844 106.09C302.761 105.162 301.911 104.06 301.292 102.784C300.712 101.469 300.422 99.942 300.422 98.202C300.422 95.998 301.002 94.0647 302.162 92.402C303.322 90.7394 304.927 89.4634 306.976 88.574C309.025 87.646 311.384 87.182 314.052 87.182C316.411 87.182 318.634 87.5687 320.722 88.342C322.849 89.1154 324.55 90.1787 325.826 91.532C326.599 92.2667 326.986 92.982 326.986 93.678C326.986 94.258 326.735 94.7994 326.232 95.302C325.768 95.766 325.227 95.998 324.608 95.998C324.183 95.998 323.796 95.8434 323.448 95.534C322.791 94.7994 321.959 94.142 320.954 93.562C319.949 92.982 318.847 92.518 317.648 92.17C316.449 91.822 315.251 91.648 314.052 91.648C312.273 91.648 310.707 91.9187 309.354 92.46C308.001 92.9627 306.937 93.6974 306.164 94.664C305.429 95.592 305.062 96.7134 305.062 98.028C305.062 99.4974 305.487 100.715 306.338 101.682C307.189 102.61 308.329 103.383 309.76 104.002C311.191 104.582 312.776 105.104 314.516 105.568C316.411 106.032 318.151 106.573 319.736 107.192C321.36 107.772 322.752 108.507 323.912 109.396C325.072 110.285 325.961 111.426 326.58 112.818C327.237 114.171 327.566 115.853 327.566 117.864C327.566 119.991 326.967 121.885 325.768 123.548C324.569 125.211 322.926 126.525 320.838 127.492C318.789 128.42 316.469 128.903 313.878 128.942ZM340.165 125.984C340.165 126.641 339.913 127.202 339.411 127.666C338.947 128.13 338.386 128.362 337.729 128.362C336.994 128.362 336.414 128.13 335.989 127.666C335.563 127.202 335.351 126.641 335.351 125.984V90.14C335.351 89.444 335.583 88.8834 336.047 88.458C336.511 87.994 337.091 87.762 337.787 87.762C338.444 87.762 339.005 87.994 339.469 88.458C339.933 88.8834 340.165 89.444 340.165 90.14V125.984ZM376.983 87.588C377.563 87.588 378.065 87.8007 378.491 88.226C378.955 88.6514 379.187 89.1347 379.187 89.676C379.187 90.1787 379.013 90.662 378.665 91.126L365.905 108.352L363.295 104.698L375.127 88.69C375.629 87.9554 376.248 87.588 376.983 87.588ZM349.839 87.588C350.651 87.588 351.289 87.9167 351.753 88.574L378.665 124.824C378.974 125.288 379.129 125.771 379.129 126.274C379.129 126.97 378.877 127.531 378.375 127.956C377.872 128.381 377.35 128.594 376.809 128.594C376.035 128.594 375.397 128.265 374.895 127.608L347.983 91.3C347.673 90.9134 347.519 90.4494 347.519 89.908C347.519 89.2507 347.751 88.7094 348.215 88.284C348.717 87.82 349.259 87.588 349.839 87.588ZM349.607 128.594C348.988 128.594 348.466 128.381 348.041 127.956C347.654 127.492 347.461 127.028 347.461 126.564C347.461 126.023 347.654 125.501 348.041 124.998L360.859 107.54L363.353 111.368L351.463 127.55C350.999 128.246 350.38 128.594 349.607 128.594Z" fill="#444E40"/>
<ellipse rx="2.19945" ry="2.10912" transform="matrix(0.798517 0.601972 0.601972 -0.798517 78.8689 123.896)" fill="#5C9D3D"/>
<path d="M83.7562 71.4183L78.1826 124.806L127.973 104.752L83.7562 71.4183Z" stroke="#5C9D3D"/>
<path d="M65.3097 95.9146L109.528 129.249L115.101 75.8606L65.3097 95.9146Z" stroke="#5C9D3D"/>
<ellipse rx="2.19945" ry="2.10912" transform="matrix(0.798517 0.601972 0.601972 -0.798517 65.4852 95.9773)" fill="#5C9D3D"/>
<ellipse rx="2.19945" ry="2.10912" transform="matrix(0.798517 0.601972 0.601972 -0.798517 115.054 75.8969)" fill="#5C9D3D"/>
<ellipse rx="2.19945" ry="2.10912" transform="matrix(0.798517 0.601972 0.601972 -0.798517 109.393 129.077)" fill="#5C9D3D"/>
<ellipse rx="2.19945" ry="2.10912" transform="matrix(0.798517 0.601972 0.601972 -0.798517 83.8948 71.5569)" fill="#5C9D3D"/>
<ellipse rx="2.19945" ry="2.10912" transform="matrix(0.798517 0.601972 0.601972 -0.798517 127.802 104.657)" fill="#5C9D3D"/>
<path d="M78.8569 123.512L109.459 129.072L127.511 105.126L115.146 75.3763L84.1868 72.457L66.1268 96.4137L78.8569 123.512Z" stroke="#5C9D3D"/>
<g opacity="0.6">
<line y1="-0.5" x2="32.1967" y2="-0.5" transform="matrix(0.99125 0.131995 0.0955873 -0.995421 64.7625 96.0929)" stroke="#5C9D3D"/>
<path d="M109.671 128.999L96.8363 100.132" stroke="#5C9D3D"/>
<path d="M83.679 71.6765L96.8362 100.132" stroke="#5C9D3D"/>
<path d="M78.9028 123.921L96.8363 100.132" stroke="#5C9D3D"/>
<line y1="-0.5" x2="31.1095" y2="-0.5" transform="matrix(-0.601972 0.798517 0.798517 0.601972 114.99 76.5089)" stroke="#5C9D3D"/>
<path d="M127.853 104.417L96.9953 99.922" stroke="#5C9D3D"/>
</g>
<ellipse rx="5.49862" ry="5.27279" transform="matrix(0.798517 0.601972 0.601972 -0.798517 96.6774 100.343)" fill="#5C9D3D"/>
<ellipse opacity="0.8" rx="2.19945" ry="2.10912" transform="matrix(0.798517 0.601972 0.601972 -0.798517 96.6773 100.343)" fill="white"/>
<ellipse rx="2.19939" ry="2.10918" transform="matrix(0.783391 0.62153 0.623222 -0.782045 71.3497 182.869)" fill="#5C9D3D"/>
<path d="M77.6106 130.589L70.6395 183.761L120.989 165.005L77.6106 130.589Z" stroke="#5C9D3D"/>
<path d="M58.5111 154.581L101.89 188.997L108.861 135.824L58.5111 154.581Z" stroke="#5C9D3D"/>
<ellipse rx="2.19939" ry="2.10918" transform="matrix(0.783391 0.62153 0.623222 -0.782045 58.6854 154.648)" fill="#5C9D3D"/>
<ellipse rx="2.19939" ry="2.10918" transform="matrix(0.783391 0.62153 0.623222 -0.782045 108.812 135.859)" fill="#5C9D3D"/>
<ellipse rx="2.19939" ry="2.10918" transform="matrix(0.783391 0.62153 0.623222 -0.782045 101.76 188.823)" fill="#5C9D3D"/>
<ellipse rx="2.19939" ry="2.10918" transform="matrix(0.783391 0.62153 0.623222 -0.782045 77.7455 130.731)" fill="#5C9D3D"/>
<ellipse rx="2.19939" ry="2.10918" transform="matrix(0.783391 0.62153 0.623222 -0.782045 120.82 164.905)" fill="#5C9D3D"/>
<path d="M71.3476 182.486L101.827 188.819L120.516 165.366L108.918 135.342L78.014 131.637L59.3159 155.1L71.3476 182.486Z" stroke="#5C9D3D"/>
<g opacity="0.6">
<line y1="-0.5" x2="32.1963" y2="-0.5" transform="matrix(0.988519 0.1571 0.121635 -0.991603 57.9587 154.745)" stroke="#5C9D3D"/>
<path d="M102.04 188.751L89.9496 159.597" stroke="#5C9D3D"/>
<path d="M77.5261 130.844L89.9499 159.597" stroke="#5C9D3D"/>
<path d="M71.3828 182.896L89.9494 159.597" stroke="#5C9D3D"/>
<line y1="-0.5" x2="31.1095" y2="-0.5" transform="matrix(-0.623222 0.782045 0.783391 0.62153 108.732 136.469)" stroke="#5C9D3D"/>
<path d="M120.877 164.666L90.1143 159.39" stroke="#5C9D3D"/>
</g>
<ellipse rx="5.49847" ry="5.27295" transform="matrix(0.783391 0.62153 0.623222 -0.782045 89.7856 159.803)" fill="#5C9D3D"/>
<ellipse opacity="0.8" rx="2.19939" ry="2.10918" transform="matrix(0.783391 0.62153 0.623222 -0.782045 89.7855 159.803)" fill="white"/>
<ellipse rx="2.19939" ry="2.10918" transform="matrix(0.783391 0.62153 0.623222 -0.782045 127.287 161.647)" fill="#5C9D3D"/>
<path d="M133.548 109.367L126.577 162.539L176.926 143.783L133.548 109.367Z" stroke="#5C9D3D"/>
<path d="M114.449 133.359L157.828 167.775L164.799 114.602L114.449 133.359Z" stroke="#5C9D3D"/>
<ellipse rx="2.19939" ry="2.10918" transform="matrix(0.783391 0.62153 0.623222 -0.782045 114.623 133.426)" fill="#5C9D3D"/>
<ellipse rx="2.19939" ry="2.10918" transform="matrix(0.783391 0.62153 0.623222 -0.782045 164.75 114.637)" fill="#5C9D3D"/>
<ellipse rx="2.19939" ry="2.10918" transform="matrix(0.783391 0.62153 0.623222 -0.782045 157.697 167.601)" fill="#5C9D3D"/>
<ellipse rx="2.19939" ry="2.10918" transform="matrix(0.783391 0.62153 0.623222 -0.782045 133.683 109.509)" fill="#5C9D3D"/>
<ellipse rx="2.19939" ry="2.10918" transform="matrix(0.783391 0.62153 0.623222 -0.782045 176.757 143.683)" fill="#5C9D3D"/>
<path d="M127.285 161.264L157.764 167.597L176.454 144.144L164.856 114.12L133.952 110.415L115.253 133.878L127.285 161.264Z" stroke="#5C9D3D"/>
<g opacity="0.6">
<line y1="-0.5" x2="32.1963" y2="-0.5" transform="matrix(0.988519 0.1571 0.121635 -0.991603 113.896 133.523)" stroke="#5C9D3D"/>
<path d="M157.978 167.529L145.887 138.375" stroke="#5C9D3D"/>
<path d="M133.464 109.622L145.887 138.375" stroke="#5C9D3D"/>
<path d="M127.321 161.674L145.887 138.376" stroke="#5C9D3D"/>
<line y1="-0.5" x2="31.1095" y2="-0.5" transform="matrix(-0.623222 0.782045 0.783391 0.62153 164.67 115.247)" stroke="#5C9D3D"/>
<path d="M176.814 143.444L146.052 138.169" stroke="#5C9D3D"/>
</g>
<ellipse rx="5.49847" ry="5.27295" transform="matrix(0.783391 0.62153 0.623222 -0.782045 145.723 138.581)" fill="#5C9D3D"/>
<ellipse opacity="0.8" rx="2.19939" ry="2.10918" transform="matrix(0.783391 0.62153 0.623222 -0.782045 145.723 138.581)" fill="white"/>
<ellipse rx="2.19939" ry="2.10918" transform="matrix(0.783391 0.62153 0.623222 -0.782045 134.366 102.932)" fill="#5C9D3D"/>
<path d="M140.626 50.6516L133.655 103.823L184.005 85.0673L140.626 50.6516Z" stroke="#5C9D3D"/>
<path d="M121.527 74.6437L164.906 109.06L171.877 55.8871L121.527 74.6437Z" stroke="#5C9D3D"/>
<ellipse rx="2.19939" ry="2.10918" transform="matrix(0.783391 0.62153 0.623222 -0.782045 121.701 74.7108)" fill="#5C9D3D"/>
<ellipse rx="2.19939" ry="2.10918" transform="matrix(0.783391 0.62153 0.623222 -0.782045 171.829 55.9221)" fill="#5C9D3D"/>
<ellipse rx="2.19939" ry="2.10918" transform="matrix(0.783391 0.62153 0.623222 -0.782045 164.776 108.885)" fill="#5C9D3D"/>
<ellipse rx="2.19939" ry="2.10918" transform="matrix(0.783391 0.62153 0.623222 -0.782045 140.761 50.7936)" fill="#5C9D3D"/>
<ellipse rx="2.19939" ry="2.10918" transform="matrix(0.783391 0.62153 0.623222 -0.782045 183.836 84.9682)" fill="#5C9D3D"/>
<path d="M134.364 102.549L164.843 108.882L183.532 85.4292L171.935 55.4047L141.03 51.6998L122.332 75.1629L134.364 102.549Z" stroke="#5C9D3D"/>
<g opacity="0.6">
<line y1="-0.5" x2="32.1963" y2="-0.5" transform="matrix(0.988519 0.1571 0.121635 -0.991603 120.975 74.8076)" stroke="#5C9D3D"/>
<path d="M165.057 108.814L152.966 79.6595" stroke="#5C9D3D"/>
<path d="M140.542 50.9072L152.966 79.6596" stroke="#5C9D3D"/>
<path d="M134.399 102.958L152.965 79.6602" stroke="#5C9D3D"/>
<line y1="-0.5" x2="31.1095" y2="-0.5" transform="matrix(-0.623222 0.782045 0.783391 0.62153 171.748 56.5316)" stroke="#5C9D3D"/>
<path d="M183.893 84.7287L153.13 79.4533" stroke="#5C9D3D"/>
</g>
<ellipse rx="5.49847" ry="5.27295" transform="matrix(0.783391 0.62153 0.623222 -0.782045 152.802 79.8658)" fill="#5C9D3D"/>
<ellipse opacity="0.8" rx="2.19939" ry="2.10918" transform="matrix(0.783391 0.62153 0.623222 -0.782045 152.802 79.8658)" fill="white"/>
<ellipse rx="2.19939" ry="2.10918" transform="matrix(0.783391 0.62153 0.623222 -0.782045 22.8082 144.955)" fill="#5C9D3D"/>
<path d="M29.0688 92.6745L22.0978 145.846L72.4471 127.09L29.0688 92.6745Z" stroke="#5C9D3D"/>
<path d="M9.96985 116.667L53.3489 151.083L60.3201 97.9102L9.96985 116.667Z" stroke="#5C9D3D"/>
<ellipse rx="2.19939" ry="2.10918" transform="matrix(0.783391 0.62153 0.623222 -0.782045 10.1439 116.734)" fill="#5C9D3D"/>
<ellipse rx="2.19939" ry="2.10918" transform="matrix(0.783391 0.62153 0.623222 -0.782045 60.2709 97.9449)" fill="#5C9D3D"/>
<ellipse rx="2.19939" ry="2.10918" transform="matrix(0.783391 0.62153 0.623222 -0.782045 53.2181 150.908)" fill="#5C9D3D"/>
<ellipse rx="2.19939" ry="2.10918" transform="matrix(0.783391 0.62153 0.623222 -0.782045 29.204 92.8166)" fill="#5C9D3D"/>
<ellipse rx="2.19939" ry="2.10918" transform="matrix(0.783391 0.62153 0.623222 -0.782045 72.2782 126.991)" fill="#5C9D3D"/>
<path d="M22.8061 144.572L53.285 150.905L71.9747 127.452L60.3769 97.4275L29.4725 93.7226L10.7744 117.186L22.8061 144.572Z" stroke="#5C9D3D"/>
<g opacity="0.6">
<line y1="-0.5" x2="32.1963" y2="-0.5" transform="matrix(0.988519 0.1571 0.121635 -0.991603 9.41748 116.831)" stroke="#5C9D3D"/>
<path d="M53.4991 150.836L41.4084 121.682" stroke="#5C9D3D"/>
<path d="M28.9846 92.9301L41.4084 121.683" stroke="#5C9D3D"/>
<path d="M22.8413 144.981L41.4079 121.683" stroke="#5C9D3D"/>
<line y1="-0.5" x2="31.1095" y2="-0.5" transform="matrix(-0.623222 0.782045 0.783391 0.62153 60.1909 98.5544)" stroke="#5C9D3D"/>
<path d="M72.3349 126.752L41.5725 121.476" stroke="#5C9D3D"/>
</g>
<ellipse rx="5.49847" ry="5.27295" transform="matrix(0.783391 0.62153 0.623222 -0.782045 41.2441 121.889)" fill="#5C9D3D"/>
<ellipse opacity="0.8" rx="2.19939" ry="2.10918" transform="matrix(0.783391 0.62153 0.623222 -0.782045 41.244 121.889)" fill="white"/>
<ellipse rx="2.19939" ry="2.10918" transform="matrix(0.783391 0.62153 0.623222 -0.782045 87.869 62.7592)" fill="#5C9D3D"/>
<path d="M94.1294 10.4786L87.1583 63.6504L137.508 44.8942L94.1294 10.4786Z" stroke="#5C9D3D"/>
<path d="M75.0304 34.4706L118.409 68.8869L125.381 15.7141L75.0304 34.4706Z" stroke="#5C9D3D"/>
<ellipse rx="2.19939" ry="2.10918" transform="matrix(0.783391 0.62153 0.623222 -0.782045 75.2045 34.5379)" fill="#5C9D3D"/>
<ellipse rx="2.19939" ry="2.10918" transform="matrix(0.783391 0.62153 0.623222 -0.782045 125.332 15.749)" fill="#5C9D3D"/>
<ellipse rx="2.19939" ry="2.10918" transform="matrix(0.783391 0.62153 0.623222 -0.782045 118.279 68.7125)" fill="#5C9D3D"/>
<ellipse rx="2.19939" ry="2.10918" transform="matrix(0.783391 0.62153 0.623222 -0.782045 94.2648 10.6207)" fill="#5C9D3D"/>
<ellipse rx="2.19939" ry="2.10918" transform="matrix(0.783391 0.62153 0.623222 -0.782045 137.339 44.7953)" fill="#5C9D3D"/>
<path d="M87.8667 62.3759L118.346 68.7086L137.035 45.2561L125.437 15.2316L94.5331 11.5267L75.8349 34.9899L87.8667 62.3759Z" stroke="#5C9D3D"/>
<g opacity="0.6">
<line y1="-0.5" x2="32.1963" y2="-0.5" transform="matrix(0.988519 0.1571 0.121635 -0.991603 74.4783 34.6347)" stroke="#5C9D3D"/>
<path d="M118.56 68.6408L106.469 39.4867" stroke="#5C9D3D"/>
<path d="M94.0454 10.7342L106.469 39.4866" stroke="#5C9D3D"/>
<path d="M87.9021 62.7853L106.469 39.4872" stroke="#5C9D3D"/>
<line y1="-0.5" x2="31.1095" y2="-0.5" transform="matrix(-0.623222 0.782045 0.783391 0.62153 125.252 16.3588)" stroke="#5C9D3D"/>
<path d="M137.396 44.5559L106.634 39.2805" stroke="#5C9D3D"/>
</g>
<ellipse rx="5.49847" ry="5.27295" transform="matrix(0.783391 0.62153 0.623222 -0.782045 106.305 39.6928)" fill="#5C9D3D"/>
<ellipse opacity="0.8" rx="2.19939" ry="2.10918" transform="matrix(0.783391 0.62153 0.623222 -0.782045 106.305 39.6928)" fill="white"/>
</g>
<defs>
<clipPath id="clip0_10_127">
<rect width="391" height="202" fill="white"/>
</clipPath>
</defs>
</svg>
