<svg width="298" height="98" viewBox="0 0 298 98" fill="none" xmlns="http://www.w3.org/2000/svg">
<path d="M127.842 69.072C128.074 69.652 128.654 70 129.176 70C129.35 70 129.466 69.942 129.698 69.942C130.394 69.652 130.742 68.782 130.452 68.086L116.358 30.444C116.184 29.922 115.604 29.574 114.966 29.574C114.386 29.574 113.806 29.922 113.574 30.444L99.48 68.086C99.19 68.782 99.596 69.652 100.292 69.942C100.466 69.942 100.698 70 100.814 70C101.394 70 101.916 69.652 102.148 69.072L105.744 59.502H124.246L127.842 69.072ZM115.024 34.852L123.202 56.66H106.788L115.024 34.852ZM161.8 70C162.612 70 163.25 69.362 163.25 68.608C163.25 67.796 162.612 67.158 161.8 67.158H142.37V30.792C142.37 30.038 141.732 29.4 140.92 29.4C140.166 29.4 139.528 30.038 139.528 30.792V68.608C139.528 69.362 140.166 70 140.92 70H141.036H161.8ZM168.089 49.41C168.147 60.778 176.731 70 187.693 70C198.539 70 207.065 60.778 207.123 49.41C207.065 38.042 198.539 28.82 187.693 28.82C176.731 28.82 168.147 38.042 168.089 49.41ZM170.931 49.41C170.931 39.376 178.471 31.72 187.693 31.72C196.625 31.72 204.165 39.376 204.223 49.41C204.165 59.328 196.625 67.158 187.693 67.158C178.471 67.158 170.931 59.328 170.931 49.41Z" fill="#5C9D3D"/>
<path d="M230.069 70.58C227.207 70.58 224.694 70.1547 222.529 69.304C220.363 68.4533 218.275 67.1 216.265 65.244C215.994 64.9733 215.762 64.6833 215.569 64.374C215.414 64.026 215.337 63.6587 215.337 63.272C215.337 62.6533 215.549 62.112 215.975 61.648C216.439 61.1453 216.999 60.894 217.657 60.894C218.198 60.894 218.681 61.1067 219.107 61.532C220.615 63.0013 222.239 64.1227 223.979 64.896C225.757 65.6693 227.749 66.056 229.953 66.056C231.654 66.056 233.181 65.7853 234.535 65.244C235.927 64.7027 237.029 63.9487 237.841 62.982C238.653 62.0153 239.059 60.894 239.059 59.618C239.02 58.0713 238.556 56.7953 237.667 55.79C236.816 54.7847 235.617 53.9533 234.071 53.296C232.563 52.6 230.803 52.02 228.793 51.556C227.014 51.1307 225.371 50.6087 223.863 49.99C222.393 49.3713 221.117 48.6173 220.035 47.728C218.952 46.8 218.101 45.698 217.483 44.422C216.903 43.1073 216.613 41.58 216.613 39.84C216.613 37.636 217.193 35.7027 218.353 34.04C219.513 32.3773 221.117 31.1013 223.167 30.212C225.216 29.284 227.575 28.82 230.243 28.82C232.601 28.82 234.825 29.2067 236.913 29.98C239.039 30.7533 240.741 31.8167 242.017 33.17C242.79 33.9047 243.177 34.62 243.177 35.316C243.177 35.896 242.925 36.4373 242.423 36.94C241.959 37.404 241.417 37.636 240.799 37.636C240.373 37.636 239.987 37.4813 239.639 37.172C238.981 36.4373 238.15 35.78 237.145 35.2C236.139 34.62 235.037 34.156 233.839 33.808C232.64 33.46 231.441 33.286 230.243 33.286C228.464 33.286 226.898 33.5567 225.545 34.098C224.191 34.6007 223.128 35.3353 222.355 36.302C221.62 37.23 221.253 38.3513 221.253 39.666C221.253 41.1353 221.678 42.3533 222.529 43.32C223.379 44.248 224.52 45.0213 225.951 45.64C227.381 46.22 228.967 46.742 230.707 47.206C232.601 47.67 234.341 48.2113 235.927 48.83C237.551 49.41 238.943 50.1447 240.103 51.034C241.263 51.9233 242.152 53.064 242.771 54.456C243.428 55.8093 243.757 57.4913 243.757 59.502C243.757 61.6287 243.157 63.5233 241.959 65.186C240.76 66.8487 239.117 68.1633 237.029 69.13C234.979 70.058 232.659 70.5413 230.069 70.58ZM256.356 67.622C256.356 68.2793 256.104 68.84 255.602 69.304C255.138 69.768 254.577 70 253.92 70C253.185 70 252.605 69.768 252.18 69.304C251.754 68.84 251.542 68.2793 251.542 67.622V31.778C251.542 31.082 251.774 30.5213 252.238 30.096C252.702 29.632 253.282 29.4 253.978 29.4C254.635 29.4 255.196 29.632 255.66 30.096C256.124 30.5213 256.356 31.082 256.356 31.778V67.622ZM293.173 29.226C293.753 29.226 294.256 29.4387 294.681 29.864C295.145 30.2893 295.377 30.7727 295.377 31.314C295.377 31.8167 295.203 32.3 294.855 32.764L282.095 49.99L279.485 46.336L291.317 30.328C291.82 29.5933 292.439 29.226 293.173 29.226ZM266.029 29.226C266.841 29.226 267.479 29.5547 267.943 30.212L294.855 66.462C295.165 66.926 295.319 67.4093 295.319 67.912C295.319 68.608 295.068 69.1687 294.565 69.594C294.063 70.0193 293.541 70.232 292.999 70.232C292.226 70.232 291.588 69.9033 291.085 69.246L264.173 32.938C263.864 32.5513 263.709 32.0873 263.709 31.546C263.709 30.8887 263.941 30.3473 264.405 29.922C264.908 29.458 265.449 29.226 266.029 29.226ZM265.797 70.232C265.179 70.232 264.657 70.0193 264.231 69.594C263.845 69.13 263.651 68.666 263.651 68.202C263.651 67.6607 263.845 67.1387 264.231 66.636L277.049 49.178L279.543 53.006L267.653 69.188C267.189 69.884 266.571 70.232 265.797 70.232Z" fill="#444E40"/>
<ellipse rx="2.19945" ry="2.10912" transform="matrix(0.798517 0.601972 0.601972 -0.798517 29.2229 72.1881)" fill="#5C9D3D"/>
<path d="M34.1102 19.7108L28.5366 73.098L78.3273 53.0444L34.1102 19.7108Z" stroke="#5C9D3D"/>
<path d="M15.6637 44.2071L59.8816 77.5413L65.4553 24.153L15.6637 44.2071Z" stroke="#5C9D3D"/>
<ellipse rx="2.19945" ry="2.10912" transform="matrix(0.798517 0.601972 0.601972 -0.798517 15.8392 44.2698)" fill="#5C9D3D"/>
<ellipse rx="2.19945" ry="2.10912" transform="matrix(0.798517 0.601972 0.601972 -0.798517 65.4075 24.1893)" fill="#5C9D3D"/>
<ellipse rx="2.19945" ry="2.10912" transform="matrix(0.798517 0.601972 0.601972 -0.798517 59.7466 77.3699)" fill="#5C9D3D"/>
<ellipse rx="2.19945" ry="2.10912" transform="matrix(0.798517 0.601972 0.601972 -0.798517 34.2488 19.8494)" fill="#5C9D3D"/>
<ellipse rx="2.19945" ry="2.10912" transform="matrix(0.798517 0.601972 0.601972 -0.798517 78.1563 52.9495)" fill="#5C9D3D"/>
<path d="M16.4808 44.7061L29.2109 71.8047L59.8132 77.3645L77.8651 53.4187L65.4996 23.6688L34.5408 20.7495L16.4808 44.7061Z" stroke="#5C9D3D"/>
<g opacity="0.6">
<line y1="-0.5" x2="32.1967" y2="-0.5" transform="matrix(0.99125 0.131995 0.0955873 -0.995421 15.1165 44.3853)" stroke="#5C9D3D"/>
<path d="M60.0254 77.2911L47.1903 48.4249" stroke="#5C9D3D"/>
<path d="M34.033 19.969L47.1902 48.4248" stroke="#5C9D3D"/>
<path d="M29.2568 72.2136L47.1904 48.4247" stroke="#5C9D3D"/>
<line y1="-0.5" x2="31.1095" y2="-0.5" transform="matrix(-0.601972 0.798517 0.798517 0.601972 65.3435 24.8014)" stroke="#5C9D3D"/>
<path d="M78.2072 52.709L47.3493 48.2145" stroke="#5C9D3D"/>
</g>
<ellipse rx="5.49862" ry="5.27279" transform="matrix(0.798517 0.601972 0.601972 -0.798517 47.0314 48.6351)" fill="#5C9D3D"/>
<ellipse opacity="0.8" rx="2.19945" ry="2.10912" transform="matrix(0.798517 0.601972 0.601972 -0.798517 47.0313 48.635)" fill="white"/>
</svg>
